<svg width="1200" height="630" xmlns="http://www.w3.org/2000/svg">
  <!-- Background -->
  <rect width="100%" height="100%" fill="#0f172a"/>
  
  <!-- Grid Pattern -->
  <defs>
    <pattern id="grid" width="40" height="40" patternUnits="userSpaceOnUse">
      <path d="M 40 0 L 0 0 0 40" fill="none" stroke="#1e293b" stroke-width="1"/>
    </pattern>
    <linearGradient id="glow" x1="0%" y1="0%" x2="100%" y2="100%">
      <stop offset="0%" style="stop-color:#3b82f6;stop-opacity:1" />
      <stop offset="100%" style="stop-color:#8b5cf6;stop-opacity:1" />
    </linearGradient>
  </defs>
  <rect width="100%" height="100%" fill="url(#grid)" />
  
  <!-- Dashboard Elements -->
  <!-- Sidebar -->
  <rect x="50" y="50" width="100" height="530" rx="10" fill="#1e293b" stroke="#334155" stroke-width="2"/>
  
  <!-- Main Card -->
  <rect x="180" y="50" width="600" height="350" rx="10" fill="#1e293b" stroke="#334155" stroke-width="2"/>
  <rect x="210" y="80" width="540" height="40" rx="5" fill="#334155"/>
  <rect x="210" y="140" width="250" height="150" rx="5" fill="#0f172a" stroke="url(#glow)" stroke-width="2"/>
  <rect x="490" y="140" width="250" height="150" rx="5" fill="#0f172a" stroke="#334155" stroke-width="1"/>
  
  <!-- Stats Cards -->
  <rect x="180" y="430" width="280" height="150" rx="10" fill="#1e293b" stroke="#334155" stroke-width="2"/>
  <rect x="500" y="430" width="280" height="150" rx="10" fill="#1e293b" stroke="#334155" stroke-width="2"/>
  
  <!-- Right Panel -->
  <rect x="810" y="50" width="340" height="530" rx="10" fill="#1e293b" stroke="#334155" stroke-width="2"/>
  <circle cx="980" cy="200" r="80" fill="none" stroke="url(#glow)" stroke-width="8"/>
  <text x="980" y="210" text-anchor="middle" fill="#fff" font-family="Arial, sans-serif" font-size="24">85%</text>
  
  <!-- Text -->
  <text x="600" y="600" text-anchor="middle" fill="#94a3b8" font-family="Arial, sans-serif" font-size="20">Antigravity Manager Interface</text>
  
  <!-- Decorative Glowing Line -->
  <path d="M 0 625 L 1200 625" stroke="url(#glow)" stroke-width="5"/>
</svg>
